<svg xmlns="http://www.w3.org/2000/svg" width="29" height="33.907" viewBox="0 0 29 33.907">
  <g id="グループ_22" data-name="グループ 22" transform="translate(-162.529 -488.391)">
    <path id="パス_11406" data-name="パス 11406" d="M172.324,557.5l-7.489-25.538-2.306.982,8.134,25.135c.126.387.9.411,1.274.248h0A.69.69,0,0,0,172.324,557.5Z" transform="translate(0 -36.129)" fill="#e2b649"/>
    <path id="パス_11407" data-name="パス 11407" d="M180.816,495.658l5.721,19.423s3.1-7.246,9.664-8.228a17.751,17.751,0,0,0,10.49-6.089,28.206,28.206,0,0,1-8.053-12.374s-1.179,3.928-6.874,4.517A44.865,44.865,0,0,0,180.816,495.658Z" transform="translate(-15.162)" fill="#ff812e"/>
  </g>
</svg>
